<?xml version="1.0" encoding="UTF-8" standalone="no"?>
<!-- Created with Inkscape (http://www.inkscape.org/) -->

<svg
   version="1.1"
   id="svg1"
   width="377.09198"
   height="227.532"
   viewBox="0 0 377.09198 227.532"
   sodipodi:docname="Chasko_Verde_Sem_Sombra.svg"
   inkscape:export-filename="Chasko_Verde_Sem_Sombra.png"
   inkscape:export-xdpi="300"
   inkscape:export-ydpi="300"
   xmlns:inkscape="http://www.inkscape.org/namespaces/inkscape"
   xmlns:sodipodi="http://sodipodi.sourceforge.net/DTD/sodipodi-0.dtd"
   xmlns="http://www.w3.org/2000/svg"
   xmlns:svg="http://www.w3.org/2000/svg">
  <defs
     id="defs1">
    <linearGradient
       x1="0"
       y1="0"
       x2="1"
       y2="0"
       gradientUnits="userSpaceOnUse"
       gradientTransform="matrix(244.30138,-150.69696,-150.69696,-244.30138,31.849665,176.53621)"
       spreadMethod="pad"
       id="linearGradient4">
      <stop
         style="stop-opacity:1;stop-color:#00a650"
         offset="0"
         id="stop1" />
      <stop
         style="stop-opacity:1;stop-color:#003814"
         offset="0.429448"
         id="stop2" />
      <stop
         style="stop-opacity:1;stop-color:#003814"
         offset="0.533742"
         id="stop3" />
      <stop
         style="stop-opacity:1;stop-color:#00a650"
         offset="1"
         id="stop4" />
    </linearGradient>
    <clipPath
       clipPathUnits="userSpaceOnUse"
       id="clipPath6">
      <path
         d="M 0,197.89 H 315.276 V 0 H 0 Z"
         transform="translate(-65.034701,-40.451299)"
         id="path6" />
    </clipPath>
    <clipPath
       clipPathUnits="userSpaceOnUse"
       id="clipPath8">
      <path
         d="M 0,197.89 H 315.276 V 0 H 0 Z"
         transform="translate(-66.567902,-152.1583)"
         id="path8" />
    </clipPath>
    <clipPath
       clipPathUnits="userSpaceOnUse"
       id="clipPath10">
      <path
         d="M 0,197.89 H 315.276 V 0 H 0 Z"
         transform="translate(-74.300302,-145.7706)"
         id="path10" />
    </clipPath>
    <radialGradient
       fx="0"
       fy="0"
       cx="0"
       cy="0"
       r="1"
       gradientUnits="userSpaceOnUse"
       gradientTransform="matrix(97.479217,0,0,-97.479217,157.6378,98.94413)"
       spreadMethod="pad"
       id="radialGradient11">
      <stop
         style="stop-opacity:1;stop-color:#00a650"
         offset="0"
         id="stop10" />
      <stop
         style="stop-opacity:1;stop-color:#003814"
         offset="1"
         id="stop11" />
    </radialGradient>
    <clipPath
       clipPathUnits="userSpaceOnUse"
       id="clipPath13">
      <path
         d="M 0,197.89 H 315.276 V 0 H 0 Z"
         transform="translate(-157.06401,-156.278)"
         id="path13" />
    </clipPath>
    <clipPath
       clipPathUnits="userSpaceOnUse"
       id="clipPath15">
      <path
         d="M 0,197.89 H 315.276 V 0 H 0 Z"
         transform="translate(-119.812,-159.3536)"
         id="path15" />
    </clipPath>
    <clipPath
       clipPathUnits="userSpaceOnUse"
       id="clipPath17">
      <path
         d="M 0,197.89 H 315.276 V 0 H 0 Z"
         transform="translate(-117.42141,-139.7511)"
         id="path17" />
    </clipPath>
    <clipPath
       clipPathUnits="userSpaceOnUse"
       id="clipPath19">
      <path
         d="M 0,197.89 H 315.276 V 0 H 0 Z"
         transform="translate(-134.7778,-141.339)"
         id="path19" />
    </clipPath>
    <clipPath
       clipPathUnits="userSpaceOnUse"
       id="clipPath21">
      <path
         d="M 0,197.89 H 315.276 V 0 H 0 Z"
         transform="translate(-159.3838,-155.6949)"
         id="path21" />
    </clipPath>
    <clipPath
       clipPathUnits="userSpaceOnUse"
       id="clipPath23">
      <path
         d="M 0,197.89 H 315.276 V 0 H 0 Z"
         transform="translate(-196.6338,-158.7716)"
         id="path23" />
    </clipPath>
    <clipPath
       clipPathUnits="userSpaceOnUse"
       id="clipPath25">
      <path
         d="M 0,197.89 H 315.276 V 0 H 0 Z"
         transform="translate(-199.0215,-139.1681)"
         id="path25" />
    </clipPath>
    <clipPath
       clipPathUnits="userSpaceOnUse"
       id="clipPath27">
      <path
         d="M 0,197.89 H 315.276 V 0 H 0 Z"
         transform="translate(-181.6689,-140.756)"
         id="path27" />
    </clipPath>
    <clipPath
       clipPathUnits="userSpaceOnUse"
       id="clipPath29">
      <path
         d="M 0,197.89 H 315.276 V 0 H 0 Z"
         transform="translate(-97.574702,-134.256)"
         id="path29" />
    </clipPath>
    <clipPath
       clipPathUnits="userSpaceOnUse"
       id="clipPath31">
      <path
         d="M 0,197.89 H 315.276 V 0 H 0 Z"
         transform="translate(-135.5854,-121.2623)"
         id="path31" />
    </clipPath>
    <clipPath
       clipPathUnits="userSpaceOnUse"
       id="clipPath33">
      <path
         d="M 0,197.89 H 315.276 V 0 H 0 Z"
         transform="translate(-147.99171,-112.4528)"
         id="path33" />
    </clipPath>
    <clipPath
       clipPathUnits="userSpaceOnUse"
       id="clipPath35">
      <path
         d="M 0,197.89 H 315.276 V 0 H 0 Z"
         transform="translate(-166.0264,-112.4528)"
         id="path35" />
    </clipPath>
    <clipPath
       clipPathUnits="userSpaceOnUse"
       id="clipPath37">
      <path
         d="M 0,197.89 H 315.276 V 0 H 0 Z"
         transform="translate(-192.8682,-121.2623)"
         id="path37" />
    </clipPath>
    <clipPath
       clipPathUnits="userSpaceOnUse"
       id="clipPath39">
      <path
         d="M 0,197.89 H 315.276 V 0 H 0 Z"
         transform="translate(-205.27441,-112.4528)"
         id="path39" />
    </clipPath>
    <clipPath
       clipPathUnits="userSpaceOnUse"
       id="clipPath41">
      <path
         d="M 0,197.89 H 315.276 V 0 H 0 Z"
         transform="translate(-51.999502,-76.737402)"
         id="path41" />
    </clipPath>
    <clipPath
       clipPathUnits="userSpaceOnUse"
       id="clipPath43">
      <path
         d="M 0,197.89 H 315.276 V 0 H 0 Z"
         transform="translate(-116.69781,-90.530405)"
         id="path43" />
    </clipPath>
    <clipPath
       clipPathUnits="userSpaceOnUse"
       id="clipPath45">
      <path
         d="M 0,197.89 H 315.276 V 0 H 0 Z"
         transform="translate(-147.6216,-84.998202)"
         id="path45" />
    </clipPath>
    <clipPath
       clipPathUnits="userSpaceOnUse"
       id="clipPath47">
      <path
         d="M 0,197.89 H 315.276 V 0 H 0 Z"
         transform="translate(-163.3213,-71.828202)"
         id="path47" />
    </clipPath>
    <clipPath
       clipPathUnits="userSpaceOnUse"
       id="clipPath49">
      <path
         d="M 0,197.89 H 315.276 V 0 H 0 Z"
         transform="translate(-196.6699,-90.1613)"
         id="path49" />
    </clipPath>
    <clipPath
       clipPathUnits="userSpaceOnUse"
       id="clipPath51">
      <path
         d="M 0,197.89 H 315.276 V 0 H 0 Z"
         transform="translate(-258.89841,-92.0363)"
         id="path51" />
    </clipPath>
    <clipPath
       clipPathUnits="userSpaceOnUse"
       id="clipPath53">
      <path
         d="M 0,197.89 H 315.276 V 0 H 0 Z"
         transform="translate(-258.89841,-92.0363)"
         id="path53" />
    </clipPath>
    <clipPath
       clipPathUnits="userSpaceOnUse"
       id="clipPath55">
      <path
         d="M 0,197.89 H 315.276 V 0 H 0 Z"
         transform="translate(-172.9678,-33.193503)"
         id="path55" />
    </clipPath>
    <clipPath
       clipPathUnits="userSpaceOnUse"
       id="clipPath57">
      <path
         d="M 0,197.89 H 315.276 V 0 H 0 Z"
         transform="translate(-105.7573,-58.947401)"
         id="path57" />
    </clipPath>
    <clipPath
       clipPathUnits="userSpaceOnUse"
       id="clipPath59">
      <path
         d="M 0,197.89 H 315.276 V 0 H 0 Z"
         transform="translate(-112.2612,-59.307701)"
         id="path59" />
    </clipPath>
    <clipPath
       clipPathUnits="userSpaceOnUse"
       id="clipPath61">
      <path
         d="M 0,197.89 H 315.276 V 0 H 0 Z"
         transform="translate(-103.05321,-57.189604)"
         id="path61" />
    </clipPath>
    <clipPath
       clipPathUnits="userSpaceOnUse"
       id="clipPath63">
      <path
         d="M 0,197.89 H 315.276 V 0 H 0 Z"
         transform="translate(-98.7925,-55.132901)"
         id="path63" />
    </clipPath>
    <clipPath
       clipPathUnits="userSpaceOnUse"
       id="clipPath65">
      <path
         d="M 0,197.89 H 315.276 V 0 H 0 Z"
         transform="translate(-109.7622,-49.022599)"
         id="path65" />
    </clipPath>
    <clipPath
       clipPathUnits="userSpaceOnUse"
       id="clipPath67">
      <path
         d="M 0,197.89 H 315.276 V 0 H 0 Z"
         transform="translate(-115.5054,-46.462001)"
         id="path67" />
    </clipPath>
    <clipPath
       clipPathUnits="userSpaceOnUse"
       id="clipPath69">
      <path
         d="M 0,197.89 H 315.276 V 0 H 0 Z"
         transform="translate(-100.9546,-52.613404)"
         id="path69" />
    </clipPath>
    <clipPath
       clipPathUnits="userSpaceOnUse"
       id="clipPath71">
      <path
         d="M 0,197.89 H 315.276 V 0 H 0 Z"
         transform="translate(-124.5132,-53.662204)"
         id="path71" />
    </clipPath>
    <clipPath
       clipPathUnits="userSpaceOnUse"
       id="clipPath73">
      <path
         d="M 0,197.89 H 315.276 V 0 H 0 Z"
         transform="translate(-137.7388,-33.193503)"
         id="path73" />
    </clipPath>
    <clipPath
       clipPathUnits="userSpaceOnUse"
       id="clipPath75">
      <path
         d="M 0,197.89 H 315.276 V 0 H 0 Z"
         transform="translate(-204.94921,-58.947401)"
         id="path75" />
    </clipPath>
    <clipPath
       clipPathUnits="userSpaceOnUse"
       id="clipPath77">
      <path
         d="M 0,197.89 H 315.276 V 0 H 0 Z"
         transform="translate(-198.4453,-59.307701)"
         id="path77" />
    </clipPath>
    <clipPath
       clipPathUnits="userSpaceOnUse"
       id="clipPath79">
      <path
         d="M 0,197.89 H 315.276 V 0 H 0 Z"
         transform="translate(-207.65431,-57.189604)"
         id="path79" />
    </clipPath>
    <clipPath
       clipPathUnits="userSpaceOnUse"
       id="clipPath81">
      <path
         d="M 0,197.89 H 315.276 V 0 H 0 Z"
         transform="translate(-211.91311,-55.132901)"
         id="path81" />
    </clipPath>
    <clipPath
       clipPathUnits="userSpaceOnUse"
       id="clipPath83">
      <path
         d="M 0,197.89 H 315.276 V 0 H 0 Z"
         transform="translate(-200.9434,-49.022599)"
         id="path83" />
    </clipPath>
    <clipPath
       clipPathUnits="userSpaceOnUse"
       id="clipPath85">
      <path
         d="M 0,197.89 H 315.276 V 0 H 0 Z"
         transform="translate(-195.2002,-46.462001)"
         id="path85" />
    </clipPath>
    <clipPath
       clipPathUnits="userSpaceOnUse"
       id="clipPath87">
      <path
         d="M 0,197.89 H 315.276 V 0 H 0 Z"
         transform="translate(-209.75101,-52.613404)"
         id="path87" />
    </clipPath>
    <clipPath
       clipPathUnits="userSpaceOnUse"
       id="clipPath89">
      <path
         d="M 0,197.89 H 315.276 V 0 H 0 Z"
         transform="translate(-186.1914,-53.662204)"
         id="path89" />
    </clipPath>
  </defs>
  <sodipodi:namedview
     id="namedview1"
     pagecolor="#505050"
     bordercolor="#eeeeee"
     borderopacity="1"
     inkscape:showpageshadow="0"
     inkscape:pageopacity="0"
     inkscape:pagecheckerboard="0"
     inkscape:deskcolor="#505050" />
  <g
     id="layer-MC0"
     inkscape:groupmode="layer"
     inkscape:label="Layer 1"
     transform="translate(-21.637333,-18.160003)">
    <path
       id="path4"
       d="M 58.449,159.886 C 32.872,144.776 16.256,123.333 16.228,98.941 v 0 C 16.256,74.557 32.872,53.116 58.449,38.005 v 0 C 84.093,22.844 119.065,13.629 157.635,13.621 v 0 c 38.568,0.008 73.544,9.223 99.187,24.384 v 0 c 25.572,15.111 42.19,36.552 42.225,60.936 v 0 c -0.035,24.392 -16.653,45.835 -42.225,60.945 v 0 c -25.643,15.167 -60.619,24.375 -99.187,24.384 v 0 C 119.07,184.261 84.093,175.053 58.449,159.886"
       style="fill:url(#linearGradient4);stroke:none"
       transform="matrix(1.3333333,0,0,-1.3333333,0,263.85333)" />
    <path
       id="path5"
       d="m 0,0 c -23.878,14.506 -39.391,35.084 -39.416,58.49 0.025,23.413 15.538,43.996 39.416,58.501 23.94,14.556 56.595,23.393 92.601,23.404 36.007,-0.011 68.663,-8.848 92.602,-23.404 C 209.075,102.486 224.59,81.903 224.624,58.49 224.59,35.084 209.075,14.506 185.203,0 161.264,-14.553 128.608,-23.397 92.601,-23.406 56.589,-23.397 23.94,-14.553 0,0"
       style="fill:#ed1c24;fill-opacity:1;fill-rule:nonzero;stroke:none"
       transform="matrix(1.3333333,0,0,-1.3333333,86.712933,209.91827)"
       clip-path="url(#clipPath6)" />
    <path
       id="path7"
       d="m 0,0 c -23.127,-14.1 -36.674,-33.021 -36.639,-53.217 -0.035,-20.188 13.512,-39.109 36.639,-53.21 23.065,-14.048 55.354,-22.91 91.067,-22.896 35.716,-0.014 68.004,8.848 91.068,22.896 23.131,14.101 36.671,33.022 36.641,53.21 C 218.806,-33.021 205.266,-14.1 182.135,0 159.071,14.048 126.783,22.91 91.067,22.899 H 91.009 C 55.32,22.899 23.055,14.041 0,0"
       style="fill:#005d28;fill-opacity:1;fill-rule:nonzero;stroke:none"
       transform="matrix(1.3333333,0,0,-1.3333333,88.7572,60.9756)"
       clip-path="url(#clipPath8)" />
    <path
       id="path9"
       d="M 0,0 C -21.232,-12.27 -33.908,-28.909 -33.879,-46.83 -33.908,-64.739 -21.232,-81.382 0,-93.651 c 21.193,-12.235 50.709,-19.895 83.335,-19.888 32.626,-0.007 62.143,7.653 83.334,19.888 21.237,12.269 33.91,28.912 33.885,46.821 0.025,17.921 -12.648,34.56 -33.885,46.83 -21.191,12.237 -50.708,19.895 -83.334,19.89 H 83.304 C 50.691,19.89 21.184,12.232 0,0 m -2.185,-97.438 c -21.979,12.676 -36.044,30.484 -36.07,50.608 0.026,20.132 14.091,37.94 36.07,50.615 22.028,12.702 52.214,20.471 85.52,20.477 33.305,-0.006 63.492,-7.775 85.518,-20.477 21.984,-12.675 36.044,-30.483 36.073,-50.615 -0.029,-20.124 -14.089,-37.932 -36.073,-50.608 -22.026,-12.699 -52.213,-20.47 -85.518,-20.475 -33.306,0.005 -63.492,7.776 -85.52,20.475"
       style="fill:#ed1c24;fill-opacity:1;fill-rule:nonzero;stroke:none"
       transform="matrix(1.3333333,0,0,-1.3333333,99.067067,69.492533)"
       clip-path="url(#clipPath10)" />
    <path
       id="path11"
       d="m 38.235,98.943 c 0,-38.046 53.47,-68.9 119.404,-68.9 v 0 c 65.929,0 119.402,30.854 119.402,68.9 v 0 c 0,38.048 -53.473,68.902 -119.402,68.902 v 0 c -65.934,0 -119.404,-30.854 -119.404,-68.902"
       transform="matrix(1.3333333,0,0,-1.3333333,0,263.85333)"
       style="fill:url(#radialGradient11);stroke:none" />
    <path
       id="path12"
       d="m 0,0 c -16.905,6.682 -33.295,-7.602 -43.039,-10.532 -2.395,-0.856 -5.068,-1.147 -8.029,-0.861 -0.51,0.114 -0.885,0.204 -1.149,0.263 -2.9,0.666 -4.394,2.059 -4.484,4.17 -0.175,1.188 0.246,2.454 1.275,3.814 0.672,0.892 1.494,1.571 2.455,2.049 1.588,0.923 3.313,1.179 5.147,0.76 0.416,-0.1 0.796,-0.323 1.159,-0.674 0.354,-0.364 0.542,-0.728 0.561,-1.101 0.012,-0.373 -0.176,-0.824 -0.556,-1.325 -0.582,-0.774 -1.27,-1.251 -2.084,-1.461 l -1.154,0.036 c -0.392,0.192 -0.463,0.529 -0.212,1.016 0.321,0.423 0.657,0.873 1.002,1.329 -0.06,0.163 -0.23,0.281 -0.544,0.355 -0.354,0.078 -0.662,0.073 -0.907,-0.023 -0.817,-0.21 -1.372,-0.578 -1.644,-1.102 -0.356,-0.468 -0.371,-0.933 -0.053,-1.406 0.323,-0.469 0.74,-0.769 1.26,-0.888 0.667,-0.255 1.551,-0.305 2.642,-0.159 1.088,0.14 1.906,0.455 2.45,0.928 l 0.871,1.152 c 0.576,0.76 0.838,1.493 0.806,2.203 -0.039,0.697 -0.382,1.296 -1.013,1.802 -0.156,0.173 -0.498,0.355 -1.002,0.519 -0.502,0.169 -0.771,0.261 -0.828,0.269 -1.629,0.373 -3.162,0.332 -4.596,-0.141 -2.27,-0.628 -4.176,-1.953 -5.72,-3.997 -0.188,-0.245 -0.38,-0.496 -0.577,-0.759 -0.15,-0.36 -0.288,-0.619 -0.418,-0.798 -0.857,-1.601 -0.935,-3.099 -0.256,-4.492 1.871,-4.096 11.366,-6.071 17.793,-4.397 C -25.236,-9.227 -20.047,3.421 0,0"
       style="fill:#ffffff;fill-opacity:1;fill-rule:nonzero;stroke:none"
       transform="matrix(1.3333333,0,0,-1.3333333,209.41867,55.482667)"
       clip-path="url(#clipPath13)" />
    <path
       id="path14"
       d="M 0,0 C 2.158,0.792 4.846,0.629 4.683,-1.169 4.629,-1.756 3.685,-2.721 2.314,-2.74 3.195,-3.478 5.359,-3.313 7.836,-2.772 11.453,-1.979 28.006,2.94 33.601,-1.01 25.775,1.763 12.029,-2.831 8.369,-3.96 5.139,-4.947 1.904,-5.443 -0.139,-4.829 -3.057,-3.95 -3.844,-1.415 0,0"
       style="fill:#ffffff;fill-opacity:1;fill-rule:nonzero;stroke:none"
       transform="matrix(1.3333333,0,0,-1.3333333,159.74933,51.381867)"
       clip-path="url(#clipPath15)" />
    <path
       id="path16"
       d="m 0,0 c 2.42,-0.724 5.217,-0.71 7.988,0.218 1.887,0.66 4.348,1.844 7.434,3.618 6.142,4.47 19.859,12.786 23.289,12.208 C 28.557,17.742 11.628,-0.218 0,0"
       style="fill:#ffffff;fill-opacity:1;fill-rule:nonzero;stroke:none"
       transform="matrix(1.3333333,0,0,-1.3333333,156.56187,77.518533)"
       clip-path="url(#clipPath17)" />
    <path
       id="path18"
       d="m 0,0 c 1.927,-0.568 3.885,-0.523 5.536,0.282 1.117,0.57 2.47,1.584 4.077,3.091 2.904,3.778 9.906,10.838 12.498,10.401 C 14.446,15.048 8.229,-0.031 0,0"
       style="fill:#ffffff;fill-opacity:1;fill-rule:nonzero;stroke:none"
       transform="matrix(1.3333333,0,0,-1.3333333,179.70373,75.401333)"
       clip-path="url(#clipPath19)" />
    <path
       id="path20"
       d="m 0,0 c 16.901,6.686 33.293,-7.597 43.036,-10.532 2.396,-0.852 5.068,-1.143 8.031,-0.86 0.507,0.118 0.885,0.204 1.146,0.263 2.9,0.669 4.396,2.058 4.485,4.17 0.175,1.188 -0.246,2.458 -1.276,3.814 -0.675,0.892 -1.494,1.57 -2.453,2.053 -1.59,0.919 -3.315,1.178 -5.147,0.755 -0.417,-0.096 -0.796,-0.323 -1.161,-0.673 -0.354,-0.365 -0.54,-0.724 -0.562,-1.098 -0.01,-0.373 0.178,-0.828 0.558,-1.329 0.584,-0.769 1.269,-1.251 2.086,-1.46 l 1.153,0.036 c 0.391,0.192 0.461,0.527 0.212,1.019 -0.32,0.424 -0.658,0.869 -1.002,1.325 0.06,0.168 0.232,0.282 0.541,0.354 0.356,0.083 0.666,0.078 0.91,-0.022 0.816,-0.205 1.372,-0.578 1.644,-1.102 0.355,-0.463 0.37,-0.932 0.053,-1.401 -0.322,-0.469 -0.74,-0.77 -1.262,-0.888 -0.665,-0.259 -1.549,-0.31 -2.64,-0.163 -1.088,0.145 -1.908,0.454 -2.452,0.928 l -0.872,1.156 c -0.574,0.759 -0.835,1.488 -0.803,2.198 0.039,0.697 0.379,1.302 1.013,1.803 0.158,0.177 0.495,0.355 0.999,0.524 0.505,0.168 0.774,0.254 0.829,0.268 1.631,0.372 3.164,0.328 4.599,-0.146 2.269,-0.629 4.176,-1.948 5.72,-3.992 0.187,-0.25 0.379,-0.501 0.574,-0.76 0.15,-0.359 0.287,-0.623 0.419,-0.797 0.857,-1.601 0.935,-3.104 0.257,-4.496 -1.87,-4.093 -11.369,-6.072 -17.795,-4.392 C 25.233,-9.221 20.046,3.428 0,0"
       style="fill:#ffffff;fill-opacity:1;fill-rule:nonzero;stroke:none"
       transform="matrix(1.3333333,0,0,-1.3333333,212.51173,56.260133)"
       clip-path="url(#clipPath21)" />
    <path
       id="path22"
       d="m 0,0 c -2.157,0.793 -4.846,0.632 -4.683,-1.165 0.054,-0.587 0.998,-1.553 2.368,-1.574 -0.879,-0.734 -3.044,-0.575 -5.521,-0.033 -3.619,0.791 -20.171,5.712 -25.766,1.766 7.824,2.768 21.571,-1.825 25.232,-2.949 3.23,-0.993 6.463,-1.488 8.509,-0.869 C 3.056,-3.951 3.841,-1.416 0,0"
       style="fill:#ffffff;fill-opacity:1;fill-rule:nonzero;stroke:none"
       transform="matrix(1.3333333,0,0,-1.3333333,262.1784,52.157867)"
       clip-path="url(#clipPath23)" />
    <path
       id="path24"
       d="m 0,0 c -2.42,-0.724 -5.214,-0.71 -7.986,0.223 -1.89,0.655 -4.347,1.842 -7.433,3.614 -6.144,4.47 -19.86,12.79 -23.291,12.208 C -28.556,17.746 -11.627,-0.214 0,0"
       style="fill:#ffffff;fill-opacity:1;fill-rule:nonzero;stroke:none"
       transform="matrix(1.3333333,0,0,-1.3333333,265.362,78.295867)"
       clip-path="url(#clipPath25)" />
    <path
       id="path26"
       d="m 0,0 c -1.929,-0.568 -3.885,-0.518 -5.54,0.287 -1.115,0.569 -2.466,1.58 -4.073,3.086 -2.906,3.778 -9.91,10.837 -12.499,10.4 C -14.447,15.053 -8.231,-0.027 0,0"
       style="fill:#ffffff;fill-opacity:1;fill-rule:nonzero;stroke:none"
       transform="matrix(1.3333333,0,0,-1.3333333,242.2252,76.178667)"
       clip-path="url(#clipPath27)" />
    <path
       id="path28"
       d="m 0,0 c 0.089,0.5 0.266,0.766 0.501,0.766 0.236,0 0.413,-0.148 0.796,-0.913 l 8.044,-16.619 8.013,16.825 c 0.236,0.471 0.383,0.707 0.649,0.707 0.265,0 0.441,-0.294 0.529,-0.913 l 2.682,-18.209 c 0.265,-1.856 0.559,-2.711 1.443,-2.975 0.856,-0.266 1.444,-0.295 1.826,-0.295 0.266,0 0.473,-0.029 0.473,-0.207 0,-0.234 -0.354,-0.323 -0.767,-0.323 -0.737,0 -4.803,0.089 -5.98,0.176 -0.679,0.059 -0.855,0.147 -0.855,0.325 0,0.147 0.118,0.235 0.325,0.324 0.175,0.059 0.264,0.442 0.147,1.267 L 16.058,-7.101 H 15.94 L 9.517,-20.477 c -0.677,-1.385 -0.825,-1.65 -1.09,-1.65 -0.266,0 -0.559,0.589 -1.031,1.473 -0.708,1.355 -3.034,5.863 -3.388,6.688 -0.265,0.619 -2.033,4.331 -3.065,6.541 H 0.826 l -1.532,-11.726 c -0.06,-0.531 -0.09,-0.913 -0.09,-1.385 0,-0.56 0.384,-0.825 0.885,-0.943 0.53,-0.118 0.942,-0.147 1.237,-0.147 0.236,0 0.443,-0.059 0.443,-0.207 0,-0.265 -0.265,-0.323 -0.707,-0.323 -1.237,0 -2.563,0.089 -3.094,0.089 -0.561,0 -1.975,-0.089 -2.917,-0.089 -0.294,0 -0.53,0.058 -0.53,0.323 0,0.148 0.176,0.207 0.472,0.207 0.235,0 0.441,0 0.883,0.088 0.824,0.177 1.061,1.326 1.209,2.327 z"
       style="fill:#ffffff;fill-opacity:1;fill-rule:nonzero;stroke:#ffffff;stroke-width:0.234;stroke-linecap:butt;stroke-linejoin:miter;stroke-miterlimit:4;stroke-dasharray:none;stroke-opacity:1"
       transform="matrix(1.3333333,0,0,-1.3333333,130.0996,84.845333)"
       clip-path="url(#clipPath29)" />
    <path
       id="path30"
       d="m 0,0 c 0.147,0 0.178,0.089 0.147,0.176 l -2.651,7.278 c -0.029,0.118 -0.059,0.265 -0.146,0.265 -0.09,0 -0.148,-0.147 -0.177,-0.265 L -5.539,0.206 C -5.569,0.089 -5.539,0 -5.422,0 Z m -6.01,-1.473 c -0.147,0 -0.206,-0.059 -0.264,-0.236 l -1.592,-4.213 c -0.295,-0.737 -0.441,-1.444 -0.441,-1.797 0,-0.53 0.265,-0.913 1.178,-0.913 h 0.442 c 0.352,0 0.442,-0.059 0.442,-0.236 0,-0.236 -0.177,-0.295 -0.501,-0.295 -0.942,0 -2.209,0.089 -3.123,0.089 -0.324,0 -1.944,-0.089 -3.477,-0.089 -0.383,0 -0.56,0.059 -0.56,0.295 0,0.177 0.118,0.236 0.355,0.236 0.264,0 0.676,0.028 0.911,0.059 1.357,0.177 1.916,1.178 2.505,2.651 l 7.395,18.503 c 0.354,0.854 0.531,1.178 0.826,1.178 0.265,0 0.441,-0.265 0.735,-0.943 0.709,-1.62 5.422,-13.641 7.308,-18.119 1.119,-2.651 1.974,-3.064 2.593,-3.212 0.442,-0.089 0.882,-0.117 1.237,-0.117 0.235,0 0.383,-0.03 0.383,-0.236 0,-0.236 -0.265,-0.295 -1.356,-0.295 -1.06,0 -3.211,0 -5.568,0.059 -0.53,0.03 -0.884,0.03 -0.884,0.236 0,0.177 0.118,0.236 0.412,0.264 0.207,0.06 0.413,0.326 0.266,0.679 l -2.358,6.246 c -0.058,0.147 -0.146,0.206 -0.293,0.206 z"
       style="fill:#ffffff;fill-opacity:1;fill-rule:nonzero;stroke:#ffffff;stroke-width:0.234;stroke-linecap:butt;stroke-linejoin:miter;stroke-miterlimit:4;stroke-dasharray:none;stroke-opacity:1"
       transform="matrix(1.3333333,0,0,-1.3333333,180.78053,102.17027)"
       clip-path="url(#clipPath31)" />
    <path
       id="path32"
       d="m 0,0 c -0.471,0.206 -0.559,0.354 -0.559,1.002 0,1.621 0.118,3.388 0.147,3.86 0.03,0.441 0.118,0.765 0.354,0.765 0.265,0 0.295,-0.265 0.295,-0.5 0,-0.383 0.117,-1.002 0.264,-1.503 0.649,-2.181 2.388,-2.975 4.214,-2.975 2.652,0 3.947,1.797 3.947,3.358 0,1.444 -0.442,2.799 -2.887,4.715 L 4.42,9.781 c -3.24,2.534 -4.36,4.597 -4.36,6.984 0,3.241 2.71,5.568 6.806,5.568 1.915,0 3.152,-0.295 3.917,-0.5 0.266,-0.06 0.414,-0.149 0.414,-0.354 0,-0.383 -0.117,-1.237 -0.117,-3.536 0,-0.648 -0.09,-0.883 -0.325,-0.883 -0.207,0 -0.295,0.176 -0.295,0.529 0,0.265 -0.147,1.179 -0.766,1.944 -0.442,0.561 -1.297,1.444 -3.212,1.444 -2.18,0 -3.505,-1.266 -3.505,-3.034 0,-1.355 0.677,-2.386 3.124,-4.243 L 6.924,13.081 C 10.489,10.4 11.756,8.368 11.756,5.569 11.756,3.86 11.108,1.827 8.986,0.442 7.515,-0.5 5.863,-0.766 4.302,-0.766 2.594,-0.766 1.268,-0.56 0,0"
       style="fill:#ffffff;fill-opacity:1;fill-rule:nonzero;stroke:#ffffff;stroke-width:0.234;stroke-linecap:butt;stroke-linejoin:miter;stroke-miterlimit:4;stroke-dasharray:none;stroke-opacity:1"
       transform="matrix(1.3333333,0,0,-1.3333333,197.32227,113.91627)"
       clip-path="url(#clipPath33)" />
    <path
       id="path34"
       d="m 0,0 c -0.472,0.206 -0.561,0.354 -0.561,1.002 0,1.621 0.119,3.388 0.148,3.86 0.029,0.441 0.118,0.765 0.353,0.765 0.265,0 0.295,-0.265 0.295,-0.5 0,-0.383 0.118,-1.002 0.266,-1.503 0.646,-2.181 2.386,-2.975 4.213,-2.975 2.651,0 3.948,1.797 3.948,3.358 0,1.444 -0.443,2.799 -2.888,4.715 L 4.419,9.781 c -3.241,2.534 -4.36,4.597 -4.36,6.984 0,3.241 2.711,5.568 6.804,5.568 1.917,0 3.154,-0.295 3.92,-0.5 0.264,-0.06 0.412,-0.149 0.412,-0.354 0,-0.383 -0.118,-1.237 -0.118,-3.536 0,-0.648 -0.087,-0.883 -0.324,-0.883 -0.206,0 -0.294,0.176 -0.294,0.529 0,0.265 -0.147,1.179 -0.767,1.944 -0.441,0.561 -1.296,1.444 -3.211,1.444 -2.18,0 -3.506,-1.266 -3.506,-3.034 0,-1.355 0.677,-2.386 3.123,-4.243 L 6.924,13.081 C 10.488,10.4 11.756,8.368 11.756,5.569 11.756,3.86 11.107,1.827 8.986,0.442 7.513,-0.5 5.862,-0.766 4.301,-0.766 2.592,-0.766 1.267,-0.56 0,0"
       style="fill:#ffffff;fill-opacity:1;fill-rule:nonzero;stroke:#ffffff;stroke-width:0.234;stroke-linecap:butt;stroke-linejoin:miter;stroke-miterlimit:4;stroke-dasharray:none;stroke-opacity:1"
       transform="matrix(1.3333333,0,0,-1.3333333,221.36853,113.91627)"
       clip-path="url(#clipPath35)" />
    <path
       id="path36"
       d="m 0,0 c 0.147,0 0.177,0.089 0.147,0.176 l -2.652,7.278 c -0.029,0.118 -0.058,0.265 -0.146,0.265 -0.089,0 -0.148,-0.147 -0.177,-0.265 L -5.539,0.206 C -5.568,0.089 -5.539,0 -5.421,0 Z m -6.011,-1.473 c -0.147,0 -0.206,-0.059 -0.264,-0.236 l -1.591,-4.213 c -0.295,-0.737 -0.443,-1.444 -0.443,-1.797 0,-0.53 0.266,-0.913 1.179,-0.913 h 0.442 c 0.353,0 0.441,-0.059 0.441,-0.236 0,-0.236 -0.176,-0.295 -0.499,-0.295 -0.943,0 -2.21,0.089 -3.124,0.089 -0.324,0 -1.943,-0.089 -3.476,-0.089 -0.383,0 -0.56,0.059 -0.56,0.295 0,0.177 0.117,0.236 0.353,0.236 0.265,0 0.677,0.028 0.913,0.059 1.356,0.177 1.916,1.178 2.505,2.651 l 7.395,18.503 c 0.352,0.854 0.53,1.178 0.826,1.178 0.265,0 0.441,-0.265 0.735,-0.943 0.708,-1.62 5.422,-13.641 7.307,-18.119 1.12,-2.651 1.975,-3.064 2.592,-3.212 0.443,-0.089 0.884,-0.117 1.239,-0.117 0.234,0 0.383,-0.03 0.383,-0.236 0,-0.236 -0.265,-0.295 -1.356,-0.295 -1.061,0 -3.211,0 -5.568,0.059 -0.531,0.03 -0.883,0.03 -0.883,0.236 0,0.177 0.116,0.236 0.411,0.264 0.207,0.06 0.411,0.326 0.265,0.679 L 0.854,-1.679 C 0.796,-1.532 0.708,-1.473 0.56,-1.473 Z"
       style="fill:#ffffff;fill-opacity:1;fill-rule:nonzero;stroke:#ffffff;stroke-width:0.234;stroke-linecap:butt;stroke-linejoin:miter;stroke-miterlimit:4;stroke-dasharray:none;stroke-opacity:1"
       transform="matrix(1.3333333,0,0,-1.3333333,257.1576,102.17027)"
       clip-path="url(#clipPath37)" />
    <path
       id="path38"
       d="m 0,0 c -0.472,0.206 -0.56,0.354 -0.56,1.002 0,1.621 0.119,3.388 0.148,3.86 0.028,0.441 0.117,0.765 0.353,0.765 0.265,0 0.294,-0.265 0.294,-0.5 0,-0.383 0.119,-1.002 0.266,-1.503 0.646,-2.181 2.386,-2.975 4.212,-2.975 2.652,0 3.949,1.797 3.949,3.358 0,1.444 -0.442,2.799 -2.887,4.715 L 4.418,9.781 c -3.24,2.534 -4.358,4.597 -4.358,6.984 0,3.241 2.71,5.568 6.804,5.568 1.916,0 3.153,-0.295 3.919,-0.5 0.265,-0.06 0.411,-0.149 0.411,-0.354 0,-0.383 -0.117,-1.237 -0.117,-3.536 0,-0.648 -0.087,-0.883 -0.324,-0.883 -0.205,0 -0.294,0.176 -0.294,0.529 0,0.265 -0.147,1.179 -0.766,1.944 -0.442,0.561 -1.296,1.444 -3.212,1.444 -2.179,0 -3.505,-1.266 -3.505,-3.034 0,-1.355 0.676,-2.386 3.123,-4.243 L 6.923,13.081 C 10.489,10.4 11.756,8.368 11.756,5.569 11.756,3.86 11.107,1.827 8.985,0.442 7.514,-0.5 5.862,-0.766 4.302,-0.766 2.592,-0.766 1.267,-0.56 0,0"
       style="fill:#ffffff;fill-opacity:1;fill-rule:nonzero;stroke:#ffffff;stroke-width:0.234;stroke-linecap:butt;stroke-linejoin:miter;stroke-miterlimit:4;stroke-dasharray:none;stroke-opacity:1"
       transform="matrix(1.3333333,0,0,-1.3333333,273.6992,113.91627)"
       clip-path="url(#clipPath39)" />
    <path
       id="path40"
       d="m 0,0 c -5.68,4.984 -7.187,11.474 -7.187,17.096 0,3.94 1.217,10.779 6.781,15.878 4.173,3.825 9.677,6.142 18.312,6.142 3.592,0 5.737,-0.231 8.403,-0.579 2.203,-0.289 4.056,-0.81 5.795,-0.985 0.637,-0.057 0.869,-0.347 0.869,-0.696 0,-0.463 -0.174,-1.159 -0.289,-3.186 -0.117,-1.913 -0.059,-5.1 -0.174,-6.26 -0.059,-0.868 -0.175,-1.332 -0.697,-1.332 -0.463,0 -0.579,0.464 -0.579,1.275 -0.058,1.796 -0.81,3.825 -2.259,5.332 -1.913,2.027 -6.433,3.592 -11.764,3.592 -5.041,0 -8.346,-1.275 -10.895,-3.592 -4.23,-3.883 -5.332,-9.388 -5.332,-15.009 0,-13.793 10.49,-20.631 18.255,-20.631 5.157,0 8.286,0.579 10.605,3.246 0.984,1.101 1.738,2.781 1.969,3.823 0.174,0.928 0.291,1.159 0.754,1.159 0.406,0 0.522,-0.405 0.522,-0.869 0,-0.694 -0.695,-5.737 -1.276,-7.708 -0.29,-0.984 -0.521,-1.273 -1.505,-1.679 C 27.99,-5.91 23.584,-6.316 19.877,-6.316 11.938,-6.316 5.273,-4.577 0,0"
       style="fill:#ffffff;fill-opacity:1;fill-rule:nonzero;stroke:#ffffff;stroke-width:0.234;stroke-linecap:butt;stroke-linejoin:miter;stroke-miterlimit:4;stroke-dasharray:none;stroke-opacity:1"
       transform="matrix(1.3333333,0,0,-1.3333333,69.332667,161.5368)"
       clip-path="url(#clipPath41)" />
    <path
       id="path42"
       d="m 0,0 c 0.105,0 0.263,0.053 0.263,0.316 v 0.949 c 0,6.796 -0.053,8.428 -0.106,9.851 -0.104,1.528 -0.525,2.001 -2.002,2.423 -0.369,0.105 -1.158,0.158 -1.79,0.158 -0.527,0 -0.79,0.157 -0.79,0.474 0,0.316 0.316,0.421 1,0.421 2.477,0 5.743,-0.105 6.954,-0.105 1.107,0 4.162,0.105 5.954,0.105 0.685,0 1.001,-0.105 1.001,-0.421 0,-0.317 -0.316,-0.474 -0.842,-0.474 -0.37,0 -0.791,-0.053 -1.371,-0.158 C 7.06,13.328 6.69,12.696 6.585,11.116 6.479,9.693 6.479,8.429 6.479,1.632 V -6.27 c 0,-4.11 0,-7.639 0.211,-9.587 0.159,-1.265 0.422,-2.108 1.844,-2.318 0.633,-0.105 1.634,-0.16 2.37,-0.16 0.475,0 0.739,-0.263 0.739,-0.473 0,-0.316 -0.37,-0.474 -0.949,-0.474 -3.003,0 -6.058,0.158 -7.322,0.158 -1.054,0 -4.32,-0.158 -6.112,-0.158 -0.632,0 -1,0.158 -1,0.474 0,0.21 0.21,0.473 0.737,0.473 0.736,0 1.264,0.055 1.686,0.16 0.949,0.21 1.212,1.053 1.37,2.37 0.21,1.896 0.21,5.321 0.21,9.43 v 3.425 c 0,0.158 -0.158,0.262 -0.263,0.262 h -17.491 c -0.156,0 -0.317,-0.052 -0.317,-0.262 v -3.425 c 0,-4.109 0.053,-7.534 0.264,-9.482 0.158,-1.265 0.422,-2.108 1.792,-2.318 0.632,-0.105 1.687,-0.16 2.371,-0.16 0.527,0 0.737,-0.263 0.737,-0.473 0,-0.316 -0.368,-0.474 -0.948,-0.474 -3.003,0 -6.217,0.158 -7.533,0.158 -1.054,0 -4.11,-0.158 -5.954,-0.158 -0.578,0 -0.896,0.158 -0.896,0.474 0,0.21 0.16,0.473 0.738,0.473 0.685,0 1.213,0.055 1.633,0.16 0.949,0.21 1.211,1.053 1.371,2.37 0.21,1.896 0.21,5.425 0.21,9.535 v 7.902 c 0,6.797 0,8.061 -0.052,9.484 -0.106,1.528 -0.528,2.001 -2.002,2.423 -0.369,0.105 -1.16,0.158 -1.845,0.158 -0.474,0 -0.789,0.157 -0.789,0.474 0,0.316 0.368,0.421 1.001,0.421 2.475,0 5.531,-0.105 6.796,-0.105 1.105,0 4.319,0.105 6.163,0.105 0.633,0 0.949,-0.105 0.949,-0.421 0,-0.317 -0.263,-0.474 -0.844,-0.474 -0.369,0 -0.791,-0.053 -1.317,-0.158 -1.265,-0.211 -1.634,-0.843 -1.739,-2.423 -0.106,-1.423 -0.106,-3.055 -0.106,-9.851 V 0.316 C -17.808,0.053 -17.647,0 -17.491,0 Z"
       style="fill:#ffffff;fill-opacity:1;fill-rule:nonzero;stroke:#ffffff;stroke-width:0.234;stroke-linecap:butt;stroke-linejoin:miter;stroke-miterlimit:4;stroke-dasharray:none;stroke-opacity:1"
       transform="matrix(1.3333333,0,0,-1.3333333,155.59707,143.14613)"
       clip-path="url(#clipPath43)" />
    <path
       id="path44"
       d="m 0,0 c 0.21,0 0.263,0.105 0.21,0.264 l -4.372,11.379 c -0.053,0.158 -0.106,0.42 -0.21,0.42 -0.158,0 -0.211,-0.262 -0.264,-0.42 L -9.114,0.316 C -9.22,0.105 -9.114,0 -8.955,0 Z m -9.903,-2.476 c -0.264,0 -0.316,-0.052 -0.421,-0.316 l -2.478,-6.006 c -0.474,-1.106 -0.684,-2.213 -0.684,-2.74 0,-0.789 0.421,-1.265 1.843,-1.265 h 0.685 c 0.581,0 0.687,-0.21 0.687,-0.472 0,-0.37 -0.265,-0.475 -0.739,-0.475 -1.529,0 -3.687,0.158 -5.163,0.158 -0.474,0 -2.951,-0.158 -5.373,-0.158 -0.58,0 -0.844,0.105 -0.844,0.475 0,0.262 0.159,0.472 0.528,0.472 0.422,0 0.948,0.055 1.37,0.055 2.106,0.315 2.896,1.685 3.845,3.95 L -4.53,19.387 c 0.526,1.265 0.895,1.791 1.37,1.791 0.684,0 0.895,-0.421 1.369,-1.422 1.106,-2.476 8.851,-20.81 11.8,-27.606 1.792,-4.056 3.11,-4.635 3.952,-4.793 0.685,-0.105 1.212,-0.16 1.739,-0.16 0.422,0 0.633,-0.157 0.633,-0.472 0,-0.37 -0.264,-0.475 -2.002,-0.475 -1.633,0 -5.007,0 -8.904,0.105 -0.843,0.053 -1.37,0.053 -1.37,0.37 0,0.262 0.105,0.42 0.58,0.472 0.315,0.055 0.632,0.476 0.421,1.002 L 1.476,-2.792 C 1.37,-2.528 1.212,-2.476 1,-2.476 Z"
       style="fill:#ffffff;fill-opacity:1;fill-rule:nonzero;stroke:#ffffff;stroke-width:0.234;stroke-linecap:butt;stroke-linejoin:miter;stroke-miterlimit:4;stroke-dasharray:none;stroke-opacity:1"
       transform="matrix(1.3333333,0,0,-1.3333333,196.8288,150.5224)"
       clip-path="url(#clipPath45)" />
    <path
       id="path46"
       d="m 0,0 c -0.736,0.314 -0.895,0.527 -0.895,1.527 0,2.424 0.211,5.216 0.264,5.953 0,0.686 0.211,1.159 0.579,1.159 0.421,0 0.474,-0.421 0.474,-0.737 0,-0.579 0.158,-1.528 0.422,-2.317 1,-3.32 4.477,-4.427 7.376,-4.427 4.003,0 6.426,2.53 6.426,5.69 0,1.949 -0.474,3.899 -4.584,6.322 l -2.686,1.581 c -5.48,3.213 -7.271,6.217 -7.271,10.167 0,5.479 5.269,9.009 11.696,9.009 3.004,0 5.373,-0.422 6.585,-0.738 0.422,-0.105 0.633,-0.263 0.633,-0.58 0,-0.579 -0.159,-1.843 -0.159,-5.373 0,-0.948 -0.211,-1.423 -0.579,-1.423 -0.316,0 -0.473,0.264 -0.473,0.791 0,0.422 -0.213,1.791 -1.212,2.95 -0.686,0.843 -2.16,2.107 -5.163,2.107 -3.32,0 -6.323,-1.738 -6.323,-4.794 0,-2.002 0.738,-3.582 4.9,-5.899 l 1.896,-1.054 c 6.112,-3.372 8.009,-6.797 8.009,-10.852 0,-3.32 -1.266,-6.006 -4.637,-8.377 C 13.066,-0.896 10.01,-1.159 7.533,-1.159 4.848,-1.159 2.002,-0.896 0,0"
       style="fill:#ffffff;fill-opacity:1;fill-rule:nonzero;stroke:#ffffff;stroke-width:0.234;stroke-linecap:butt;stroke-linejoin:miter;stroke-miterlimit:4;stroke-dasharray:none;stroke-opacity:1"
       transform="matrix(1.3333333,0,0,-1.3333333,217.76173,168.0824)"
       clip-path="url(#clipPath47)" />
    <path
       id="path48"
       d="m 0,0 h 0.211 c 1.579,1.687 8.323,8.324 9.693,9.852 1.317,1.475 2.319,2.528 2.319,3.319 0,0.473 -0.211,0.789 -0.633,0.895 -0.422,0.106 -0.633,0.21 -0.633,0.474 0,0.316 0.264,0.421 0.738,0.421 1.001,0 3.53,-0.105 4.795,-0.105 1.422,0 4.004,0.105 5.426,0.105 0.474,0 0.791,-0.105 0.791,-0.421 0,-0.316 -0.265,-0.474 -0.686,-0.474 -0.684,0 -1.844,-0.211 -2.687,-0.527 C 17.859,13.013 16.385,12.064 14.436,10.22 12.96,8.85 6.059,2.318 4.637,0.686 6.27,-1.423 15.383,-10.905 17.174,-12.591 c 2.055,-1.844 3.847,-3.794 6.322,-4.794 1.369,-0.581 2.317,-0.581 2.845,-0.581 0.368,0 0.632,-0.21 0.632,-0.472 0,-0.317 -0.264,-0.475 -1.107,-0.475 h -4.055 c -1.37,0 -2.213,0 -3.214,0.105 -2.475,0.211 -4.003,1.16 -6.006,2.898 C 10.589,-14.171 1.686,-3.846 0.685,-2.476 L 0.211,-1.844 H 0 V -5.9 c 0,-4.111 0,-7.64 0.105,-9.588 0.106,-1.265 0.528,-2.108 1.685,-2.318 0.634,-0.105 1.687,-0.16 2.267,-0.16 0.369,0 0.632,-0.263 0.632,-0.472 0,-0.317 -0.37,-0.475 -0.896,-0.475 -2.581,0 -5.899,0.158 -7.06,0.158 -1.052,0 -4.003,-0.158 -5.846,-0.158 -0.58,0 -0.897,0.158 -0.897,0.475 0,0.209 0.158,0.472 0.739,0.472 0.685,0 1.21,0.055 1.632,0.16 0.949,0.21 1.212,1.053 1.369,2.37 0.211,1.896 0.211,5.425 0.211,9.536 v 7.901 c 0,6.797 0,8.061 -0.052,9.484 -0.106,1.528 -0.527,2.001 -2.002,2.423 -0.368,0.105 -1.158,0.158 -1.844,0.158 -0.474,0 -0.79,0.158 -0.79,0.474 0,0.316 0.369,0.421 1.054,0.421 2.423,0 5.374,-0.105 6.479,-0.105 1.108,0 4.426,0.105 5.954,0.105 0.684,0 1,-0.105 1,-0.421 0,-0.316 -0.263,-0.474 -0.632,-0.474 -0.473,0 -0.737,-0.053 -1.318,-0.158 C 0.527,13.697 0.158,13.065 0.053,11.485 0,10.062 0,8.798 0,2.001 Z"
       style="fill:#ffffff;fill-opacity:1;fill-rule:nonzero;stroke:#ffffff;stroke-width:0.234;stroke-linecap:butt;stroke-linejoin:miter;stroke-miterlimit:4;stroke-dasharray:none;stroke-opacity:1"
       transform="matrix(1.3333333,0,0,-1.3333333,262.22653,143.63827)"
       clip-path="url(#clipPath49)" />
    <path
       id="path50"
       d="m 0,0 c 0,12.981 -7.477,21.036 -16.979,21.036 -6.666,0 -14.256,-3.708 -14.256,-18.139 0,-12.052 6.664,-21.615 17.79,-21.615 C -9.388,-18.718 0,-16.747 0,0 m -39.232,1.102 c 0,9.91 6.548,22.715 23.933,22.715 14.43,0 23.41,-8.401 23.41,-21.672 0,-13.272 -9.27,-23.76 -23.99,-23.76 -16.632,0 -23.353,12.46 -23.353,22.717"
       style="fill:#ffffff;fill-opacity:1;fill-rule:nonzero;stroke:none"
       transform="matrix(1.3333333,0,0,-1.3333333,345.19787,141.13827)"
       clip-path="url(#clipPath51)" />
    <path
       id="path52"
       d="m 0,0 c 0,12.981 -7.477,21.036 -16.979,21.036 -6.666,0 -14.256,-3.708 -14.256,-18.139 0,-12.052 6.664,-21.615 17.79,-21.615 C -9.388,-18.718 0,-16.747 0,0 Z m -39.232,1.102 c 0,9.91 6.548,22.715 23.933,22.715 14.43,0 23.41,-8.401 23.41,-21.672 0,-13.272 -9.27,-23.76 -23.99,-23.76 -16.632,0 -23.353,12.46 -23.353,22.717 z"
       style="fill:none;stroke:#ffffff;stroke-width:0.234;stroke-linecap:butt;stroke-linejoin:miter;stroke-miterlimit:4;stroke-dasharray:none;stroke-opacity:1"
       transform="matrix(1.3333333,0,0,-1.3333333,345.19787,141.13827)"
       clip-path="url(#clipPath53)" />
    <path
       id="path54"
       d="m 0,0 c -8.218,4.402 -17.342,8.73 -26.616,12.114 l 0.483,1.205 C -16.592,9.838 -7.226,5.367 1.172,0.844 Z"
       style="fill:#ffffff;fill-opacity:1;fill-rule:evenodd;stroke:none"
       transform="matrix(1.3333333,0,0,-1.3333333,230.62373,219.59533)"
       clip-path="url(#clipPath55)" />
    <path
       id="path56"
       d="M 0,0 -13.05,4.605 -12.826,5.341 0.24,0.77 Z"
       style="fill:#ffffff;fill-opacity:1;fill-rule:evenodd;stroke:none"
       transform="matrix(1.3333333,0,0,-1.3333333,141.00973,185.2568)"
       clip-path="url(#clipPath57)" />
    <path
       id="path58"
       d="M 0,0 -16.187,6.384 -15.903,7.092 0.295,0.731 Z"
       style="fill:#ffffff;fill-opacity:1;fill-rule:evenodd;stroke:none"
       transform="matrix(1.3333333,0,0,-1.3333333,149.6816,184.7764)"
       clip-path="url(#clipPath59)" />
    <path
       id="path60"
       d="M 0,0 -14.255,3.923 -14.06,4.678 0.169,0.772 Z"
       style="fill:#ffffff;fill-opacity:1;fill-rule:evenodd;stroke:none"
       transform="matrix(1.3333333,0,0,-1.3333333,137.40427,187.60053)"
       clip-path="url(#clipPath61)" />
    <path
       id="path62"
       d="M 0,0 -12.33,3.002 -12.193,3.787 0.155,0.814 Z"
       style="fill:#ffffff;fill-opacity:1;fill-rule:evenodd;stroke:none"
       transform="matrix(1.3333333,0,0,-1.3333333,131.72333,190.3428)"
       clip-path="url(#clipPath63)" />
    <path
       id="path64"
       d="m 0,0 -13.601,2.472 -0.163,-0.775 13.6,-2.468 z"
       style="fill:#ffffff;fill-opacity:1;fill-rule:evenodd;stroke:none"
       transform="matrix(1.3333333,0,0,-1.3333333,146.3496,198.48987)"
       clip-path="url(#clipPath65)" />
    <path
       id="path66"
       d="m 0,0 -13.745,1.536 -0.107,-0.804 13.731,-1.49 z"
       style="fill:#ffffff;fill-opacity:1;fill-rule:evenodd;stroke:none"
       transform="matrix(1.3333333,0,0,-1.3333333,154.0072,201.904)"
       clip-path="url(#clipPath67)" />
    <path
       id="path68"
       d="M 0,0 -13.223,2.412 -13.387,1.637 -0.163,-0.771 Z"
       style="fill:#ffffff;fill-opacity:1;fill-rule:evenodd;stroke:none"
       transform="matrix(1.3333333,0,0,-1.3333333,134.60613,193.70213)"
       clip-path="url(#clipPath69)" />
    <path
       id="path70"
       d="m 0,0 0.128,-0.021 0.004,-10e-4 0.005,10e-4 0.005,-10e-4 0.041,-0.004 h 0.008 v -0.003 l 0.01,-0.003 H 0.203 C 1.315,-0.216 2.258,-0.591 3.025,-1.017 2.351,-0.316 1.188,0.604 -0.464,0.954 l -0.02,0.033 0.017,-0.035 c -0.262,0.057 -0.534,0.097 -0.816,0.124 -2.676,0.249 -4.488,-1.185 -5.13,-1.8 l -0.675,-0.675 0.478,-0.755 c 0.236,-0.32 0.61,-0.79 1.162,-1.286 l 0.087,-0.045 0.087,-0.049 c 0.445,-0.211 0.857,-0.48 1.283,-0.794 l 0.071,-0.076 h 0.074 c 0.59,-0.293 1.257,-0.438 1.93,-0.514 1.211,-0.105 2.262,0.149 3.116,0.523 -0.528,-0.068 -1.098,-0.084 -1.716,-0.031 -0.818,0.083 -1.572,0.278 -2.178,0.542 -0.529,0.329 -1.16,0.683 -1.88,1.006 -0.664,0.488 -1.143,0.981 -1.426,1.285 0.691,0.629 2.555,1.958 5.536,1.645 C -0.305,0.041 -0.152,0.023 0,0 M 9.432,-6.497 C 8.737,-6.693 7.934,-6.795 7.03,-6.711 6.389,-6.652 5.763,-6.49 5.157,-6.229 L 5.082,-6.226 5.014,-6.15 c -0.44,0.288 -0.826,0.534 -1.29,0.717 l -0.088,0.046 -0.067,0.08 c -0.553,0.421 -0.942,0.865 -1.197,1.152 l -0.51,0.701 0.671,0.598 c 0.598,0.537 2.328,1.821 4.929,1.573 1.195,-0.122 2.186,-0.524 2.959,-0.979 C 9.975,-2.135 9.499,-2.036 8.984,-1.981 5.979,-1.658 4.103,-2.938 3.382,-3.552 3.619,-3.87 4.097,-4.364 4.766,-4.847 5.484,-5.175 6.098,-5.553 6.609,-5.912 7.23,-6.146 7.971,-6.369 8.788,-6.448 9.007,-6.475 9.22,-6.486 9.432,-6.497 M -8.729,-2.4 c -0.834,-0.31 -1.853,-0.498 -3.014,-0.346 -0.657,0.1 -1.294,0.304 -1.882,0.598 l -0.059,0.029 -0.084,0.049 c -0.41,0.341 -0.81,0.639 -1.285,0.865 l -0.086,0.047 -0.04,0.061 c -0.551,0.492 -0.938,1.011 -1.129,1.341 l -0.509,0.772 0.717,0.615 c 0.629,0.587 2.448,1.903 5.104,1.546 2.144,-0.314 3.578,-1.569 4.309,-2.392 -0.909,0.611 -2.087,1.172 -3.543,1.405 -2.932,0.47 -4.835,-0.723 -5.563,-1.293 0.245,-0.364 0.678,-0.864 1.315,-1.407 0.732,-0.373 1.302,-0.763 1.816,-1.126 0.615,-0.305 1.34,-0.557 2.141,-0.667 0.642,-0.109 1.241,-0.136 1.792,-0.097 M 16.1,-0.2 c 1.244,-0.055 4.146,-0.507 6.656,-3.071 2.533,-2.535 2.819,-5.322 2.795,-6.507 -0.505,0.032 -1.286,0.123 -2.2,0.37 l -0.063,-0.03 c 0.722,-0.39 1.269,-0.811 1.615,-1.107 -0.794,-0.874 -2.72,-2.727 -5.905,-2.979 -3.223,-0.267 -5.3,1.262 -6.102,1.977 0.226,0.294 0.56,0.674 1.012,1.077 -0.587,-0.251 -1.236,-0.459 -1.946,-0.599 -3.632,-0.719 -6.131,0.787 -7.056,1.491 0.207,0.345 0.547,0.855 1.047,1.404 -0.632,-0.292 -1.338,-0.533 -2.117,-0.699 -3.627,-0.72 -6.104,0.771 -7.024,1.473 0.249,0.423 0.693,1.076 1.364,1.756 -0.53,-0.266 -1.118,-0.498 -1.771,-0.665 -3.237,-0.824 -5.544,0.419 -6.411,1.021 0.16,0.305 0.425,0.755 0.817,1.25 -0.119,-0.031 -0.235,-0.056 -0.355,-0.086 -3.292,-0.716 -5.566,0.585 -6.435,1.182 0.176,0.293 0.45,0.714 0.844,1.172 -1.063,-0.319 -2.397,-0.502 -3.945,-0.269 -3.4,0.504 -5.232,2.538 -5.883,3.387 0.789,0.612 2.977,1.907 6.375,1.404 0.199,-0.027 0.397,-0.062 0.587,-0.103 -0.58,0.755 -0.921,1.457 -1.095,1.889 0.9,0.474 3.321,1.452 6.466,0.227 0.715,-0.271 1.343,-0.605 1.894,-0.975 -0.401,0.746 -0.623,1.406 -0.739,1.832 1.03,0.363 3.732,1.039 6.901,-0.614 C -2.558,3.96 -1.326,2.431 -0.596,1.18 -1.365,2.57 -1.629,3.854 -1.715,4.543 -0.605,4.787 2.27,5.024 5.31,2.807 6.266,2.105 7.006,1.317 7.572,0.533 7.27,1.594 7.22,2.49 7.229,3.013 c 1.145,0.039 4.144,-0.167 6.909,-2.757 1.489,-1.405 2.308,-2.943 2.758,-4.258 -2.175,0.796 -3.946,-0.09 -4.586,-0.507 l -0.741,-0.45 0.302,-0.805 c 0.132,-0.374 0.373,-0.885 0.758,-1.474 l 0.069,-0.074 0.042,-0.066 c 0.355,-0.307 0.659,-0.628 0.968,-1.023 l 0.069,-0.078 0.045,-0.057 c 0.466,-0.373 0.98,-0.663 1.529,-0.895 0.971,-0.361 1.877,-0.384 2.652,-0.26 -0.134,0.037 -0.265,0.083 -0.397,0.132 -0.783,0.286 -1.443,0.655 -1.994,1.073 -0.423,0.458 -0.924,0.967 -1.566,1.436 -0.527,0.669 -0.856,1.225 -1.042,1.632 0.666,0.343 2.141,0.901 4.136,0.587 l 0.079,-0.011 c 0.497,-0.082 1.022,-0.219 1.575,-0.425 0.106,-0.04 0.214,-0.078 0.318,-0.123 -0.542,0.53 -1.233,1.026 -2.114,1.351 l -0.08,0.029 c -0.157,0.523 -0.384,1.105 -0.68,1.704 -0.179,0.891 -0.176,1.642 -0.138,2.106"
       style="fill:#ffffff;fill-opacity:1;fill-rule:evenodd;stroke:none"
       transform="matrix(1.3333333,0,0,-1.3333333,166.0176,192.30373)"
       clip-path="url(#clipPath71)" />
    <path
       id="path72"
       d="m 0,0 c 8.217,4.402 17.34,8.73 26.615,12.114 l -0.483,1.205 C 16.592,9.838 7.226,5.367 -1.173,0.844 Z"
       style="fill:#ffffff;fill-opacity:1;fill-rule:evenodd;stroke:none"
       transform="matrix(1.3333333,0,0,-1.3333333,183.65173,219.59533)"
       clip-path="url(#clipPath73)" />
    <path
       id="path74"
       d="M 0,0 13.049,4.605 12.825,5.341 -0.241,0.77 Z"
       style="fill:#ffffff;fill-opacity:1;fill-rule:evenodd;stroke:none"
       transform="matrix(1.3333333,0,0,-1.3333333,273.2656,185.2568)"
       clip-path="url(#clipPath75)" />
    <path
       id="path76"
       d="M 0,0 16.186,6.384 15.902,7.092 -0.295,0.731 Z"
       style="fill:#ffffff;fill-opacity:1;fill-rule:evenodd;stroke:none"
       transform="matrix(1.3333333,0,0,-1.3333333,264.59373,184.7764)"
       clip-path="url(#clipPath77)" />
    <path
       id="path78"
       d="M 0,0 14.254,3.923 14.058,4.678 -0.17,0.772 Z"
       style="fill:#ffffff;fill-opacity:1;fill-rule:evenodd;stroke:none"
       transform="matrix(1.3333333,0,0,-1.3333333,276.8724,187.60053)"
       clip-path="url(#clipPath79)" />
    <path
       id="path80"
       d="M 0,0 12.33,3.002 12.194,3.787 -0.154,0.814 Z"
       style="fill:#ffffff;fill-opacity:1;fill-rule:evenodd;stroke:none"
       transform="matrix(1.3333333,0,0,-1.3333333,282.5508,190.3428)"
       clip-path="url(#clipPath81)" />
    <path
       id="path82"
       d="M 0,0 13.6,2.472 13.764,1.697 0.164,-0.771 Z"
       style="fill:#ffffff;fill-opacity:1;fill-rule:evenodd;stroke:none"
       transform="matrix(1.3333333,0,0,-1.3333333,267.92453,198.48987)"
       clip-path="url(#clipPath83)" />
    <path
       id="path84"
       d="M 0,0 13.745,1.536 13.852,0.732 0.122,-0.758 Z"
       style="fill:#ffffff;fill-opacity:1;fill-rule:evenodd;stroke:none"
       transform="matrix(1.3333333,0,0,-1.3333333,260.26693,201.904)"
       clip-path="url(#clipPath85)" />
    <path
       id="path86"
       d="M 0,0 13.222,2.412 13.386,1.637 0.163,-0.771 Z"
       style="fill:#ffffff;fill-opacity:1;fill-rule:evenodd;stroke:none"
       transform="matrix(1.3333333,0,0,-1.3333333,279.668,193.70213)"
       clip-path="url(#clipPath87)" />
    <path
       id="path88"
       d="M 0,0 V 0 C 0.153,0.023 0.307,0.041 0.464,0.052 3.445,0.365 5.312,-0.964 6,-1.593 5.718,-1.897 5.239,-2.39 4.574,-2.878 3.854,-3.201 3.224,-3.555 2.694,-3.884 2.091,-4.148 1.335,-4.343 0.517,-4.426 c -0.616,-0.053 -1.187,-0.037 -1.715,0.031 0.853,-0.374 1.905,-0.628 3.114,-0.523 0.676,0.076 1.341,0.221 1.931,0.514 h 0.075 l 0.07,0.076 c 0.426,0.314 0.838,0.583 1.283,0.794 l 0.088,0.049 0.086,0.045 C 6,-2.944 6.374,-2.474 6.611,-2.154 l 0.478,0.755 -0.674,0.675 C 5.773,-0.109 3.961,1.325 1.284,1.076 1.003,1.049 0.729,1.009 0.467,0.952 L 0.485,0.987 0.464,0.954 c -1.651,-0.35 -2.815,-1.27 -3.487,-1.971 0.766,0.426 1.708,0.801 2.82,0.985 H -0.2 l 0.009,0.003 v 0.003 h 0.01 l 0.04,0.004 0.006,10e-4 0.003,-10e-4 0.005,10e-4 z m -9.431,-6.497 c 0.214,0.011 0.424,0.022 0.646,0.049 0.816,0.079 1.556,0.302 2.177,0.536 0.511,0.359 1.125,0.737 1.842,1.065 0.67,0.483 1.149,0.977 1.385,1.295 -0.719,0.614 -2.596,1.894 -5.603,1.571 -0.514,-0.055 -0.991,-0.154 -1.435,-0.281 0.773,0.455 1.763,0.857 2.958,0.979 2.601,0.248 4.329,-1.036 4.929,-1.573 l 0.672,-0.598 -0.509,-0.701 c -0.257,-0.287 -0.645,-0.731 -1.198,-1.152 l -0.069,-0.08 -0.086,-0.046 C -4.186,-5.616 -4.574,-5.862 -5.014,-6.15 l -0.067,-0.076 -0.075,-0.003 c -0.606,-0.261 -1.232,-0.423 -1.873,-0.482 -0.905,-0.084 -1.708,0.018 -2.402,0.214 M 8.731,-2.4 c 0.55,-0.039 1.15,-0.012 1.791,0.097 0.8,0.11 1.527,0.362 2.142,0.667 0.514,0.363 1.083,0.753 1.816,1.126 0.636,0.543 1.069,1.043 1.314,1.407 C 15.066,1.467 13.164,2.66 10.232,2.19 8.776,1.957 7.597,1.396 6.688,0.785 7.42,1.608 8.854,2.863 10.997,3.177 13.653,3.534 15.472,2.218 16.101,1.631 L 16.818,1.016 16.309,0.244 C 16.117,-0.086 15.73,-0.605 15.18,-1.097 L 15.14,-1.158 15.053,-1.205 C 14.578,-1.431 14.179,-1.729 13.769,-2.07 L 13.685,-2.119 13.626,-2.148 C 13.039,-2.442 12.401,-2.646 11.744,-2.746 10.582,-2.898 9.563,-2.71 8.731,-2.4 m -24.829,2.2 c 0.036,-0.464 0.04,-1.215 -0.138,-2.106 -0.296,-0.599 -0.522,-1.181 -0.68,-1.704 l -0.081,-0.029 c -0.881,-0.325 -1.572,-0.821 -2.114,-1.351 0.104,0.045 0.213,0.083 0.319,0.123 0.552,0.206 1.079,0.343 1.574,0.425 l 0.079,0.011 c 1.997,0.314 3.469,-0.244 4.136,-0.587 -0.186,-0.407 -0.515,-0.963 -1.042,-1.632 -0.643,-0.469 -1.143,-0.978 -1.566,-1.436 -0.549,-0.418 -1.21,-0.787 -1.993,-1.073 -0.133,-0.049 -0.264,-0.095 -0.399,-0.132 0.776,-0.124 1.681,-0.101 2.653,0.26 0.549,0.232 1.063,0.522 1.531,0.895 l 0.042,0.057 0.072,0.078 c 0.306,0.395 0.611,0.716 0.966,1.023 l 0.041,0.066 0.069,0.074 c 0.387,0.589 0.627,1.1 0.76,1.474 l 0.299,0.805 -0.739,0.45 c -0.638,0.417 -2.41,1.303 -4.586,0.507 0.452,1.315 1.27,2.853 2.759,4.258 2.765,2.59 5.762,2.796 6.908,2.757 0.01,-0.523 -0.041,-1.419 -0.344,-2.48 0.568,0.784 1.307,1.572 2.262,2.274 3.042,2.217 5.916,1.98 7.026,1.736 C 1.63,3.854 1.367,2.57 0.597,1.18 1.328,2.431 2.559,3.96 4.574,5.008 7.745,6.661 10.448,5.985 11.476,5.622 11.361,5.196 11.138,4.536 10.737,3.79 c 0.552,0.37 1.18,0.704 1.896,0.975 3.144,1.225 5.566,0.247 6.464,-0.227 C 18.925,4.106 18.582,3.404 18.002,2.649 18.193,2.69 18.391,2.725 18.589,2.752 21.987,3.255 24.174,1.96 24.964,1.348 24.313,0.499 22.48,-1.535 19.081,-2.039 17.533,-2.272 16.2,-2.089 15.134,-1.77 15.53,-2.228 15.803,-2.649 15.981,-2.942 15.111,-3.539 12.836,-4.84 9.546,-4.124 9.425,-4.094 9.308,-4.069 9.19,-4.038 9.582,-4.533 9.85,-4.983 10.007,-5.288 9.141,-5.89 6.833,-7.133 3.597,-6.309 2.943,-6.142 2.354,-5.91 1.826,-5.644 2.498,-6.324 2.94,-6.977 3.189,-7.4 2.268,-8.102 -0.208,-9.593 -3.836,-8.873 c -0.779,0.166 -1.484,0.407 -2.116,0.699 0.501,-0.549 0.84,-1.059 1.047,-1.404 -0.924,-0.704 -3.424,-2.21 -7.056,-1.491 -0.71,0.14 -1.357,0.348 -1.945,0.599 0.452,-0.403 0.784,-0.783 1.012,-1.077 -0.803,-0.715 -2.878,-2.244 -6.104,-1.977 -3.185,0.252 -5.11,2.105 -5.903,2.979 0.345,0.296 0.892,0.717 1.614,1.107 l -0.062,0.03 c -0.915,-0.247 -1.694,-0.338 -2.201,-0.37 -0.024,1.185 0.262,3.972 2.795,6.507 2.511,2.564 5.413,3.016 6.657,3.071"
       style="fill:#ffffff;fill-opacity:1;fill-rule:evenodd;stroke:none"
       transform="matrix(1.3333333,0,0,-1.3333333,248.2552,192.30373)"
       clip-path="url(#clipPath89)" />
  </g>
</svg>
